<svg width="275" height="204" viewBox="0 0 275 204" fill="none" xmlns="http://www.w3.org/2000/svg">
<mask id="mask0_0_4" style="mask-type:luminance" maskUnits="userSpaceOnUse" x="0" y="0" width="275" height="204">
<path d="M0 0H275V204H0V0Z" fill="white"/>
</mask>
<g mask="url(#mask0_0_4)">
<path d="M49.51 80.96C63.323 80.96 74.52 69.763 74.52 55.95C74.52 42.137 63.323 30.94 49.51 30.94C35.697 30.94 24.5 42.137 24.5 55.95C24.5 69.763 35.697 80.96 49.51 80.96Z" fill="url(#paint0_linear_0_4)"/>
<path opacity="0.45" d="M48.98 21.47C29.92 21.48 14.48 36.94 14.49 56C14.49 69.85 22.79 82.36 35.55 87.76C53.11 95.18 73.35 86.96 80.77 69.4C88.19 51.84 79.97 31.6 62.41 24.18C58.1615 22.3814 53.5935 21.4596 48.98 21.47ZM48.98 20.47C68.59 20.47 84.48 36.36 84.48 55.97C84.48 75.58 68.59 91.47 48.98 91.47C29.37 91.47 13.48 75.58 13.48 55.97C13.48 36.36 29.37 20.47 48.98 20.47Z" fill="#FC1754"/>
<path d="M58.08 55.95C58.28 55.9399 58.4685 55.8533 58.6065 55.7081C58.7445 55.5629 58.8215 55.3703 58.8215 55.17C58.8215 54.9697 58.7445 54.7771 58.6065 54.6319C58.4685 54.4867 58.28 54.4001 58.08 54.39C57.88 54.4001 57.6915 54.4867 57.5535 54.6319C57.4155 54.7771 57.3385 54.9697 57.3385 55.17C57.3385 55.3703 57.4155 55.5629 57.5535 55.7081C57.6915 55.8533 57.88 55.9399 58.08 55.95ZM49.49 52.04C51.86 52.04 53.79 50.11 53.79 47.74C53.79 45.37 51.86 43.44 49.49 43.44C47.12 43.44 45.19 45.37 45.19 47.74C45.19 50.11 47.12 52.04 49.49 52.04ZM36.79 61.22C37.25 61.91 38.17 62.12 38.89 61.7C40.522 60.7443 42.2435 59.9505 44.03 59.33V63.76H54.97V59.33C56.76 59.95 58.48 60.75 60.11 61.7C60.82 62.12 61.74 61.91 62.2 61.22L63.07 59.92C63.55 59.21 63.36 58.24 62.64 57.76C62.62 57.75 62.6 57.73 62.58 57.72C62 57.37 61.13 56.89 60.08 56.38C59.757 56.9083 59.2378 57.287 58.6361 57.4332C58.0345 57.5794 57.3994 57.4811 56.87 57.16C56.4545 56.9056 56.1284 56.5284 55.9367 56.0805C55.745 55.6326 55.6972 55.1362 55.8 54.66C53.76 53.99 51.64 53.63 49.49 53.6C46.81 53.66 44.17 54.19 41.68 55.17C41.6788 55.6166 41.5496 56.0536 41.3075 56.429C41.0654 56.8043 40.7207 57.1023 40.3143 57.2876C39.9079 57.4729 39.4569 57.5377 39.0147 57.4743C38.5726 57.4109 38.158 57.222 37.82 56.93C37.27 57.22 36.78 57.5 36.42 57.71C35.68 58.15 35.45 59.11 35.89 59.85C35.9 59.87 35.92 59.89 35.93 59.91L36.8 61.21L36.79 61.22ZM51.84 60.25C52.49 60.25 53.01 60.77 53.01 61.42C53.01 62.07 52.49 62.59 51.84 62.59C51.19 62.59 50.67 62.07 50.67 61.42C50.67 60.77 51.19 60.25 51.84 60.25ZM47.15 55.56C47.8 55.56 48.32 56.08 48.32 56.73C48.32 57.38 47.8 57.9 47.15 57.9C46.5 57.9 45.98 57.38 45.98 56.73C45.98 56.08 46.5 55.56 47.14 55.55H47.15V55.56ZM39.34 55.95C39.54 55.9399 39.7285 55.8533 39.8665 55.7081C40.0045 55.5629 40.0815 55.3703 40.0815 55.17C40.0815 54.9697 40.0045 54.7771 39.8665 54.6319C39.7285 54.4867 39.54 54.4001 39.34 54.39C39.14 54.4001 38.9515 54.4867 38.8135 54.6319C38.6755 54.7771 38.5985 54.9697 38.5985 55.17C38.5985 55.3703 38.6755 55.5629 38.8135 55.7081C38.9515 55.8533 39.14 55.9399 39.34 55.95ZM64.34 65.33H34.65C34.22 65.33 33.87 65.68 33.87 66.11V67.67C33.87 68.1 34.22 68.45 34.65 68.45H64.34C64.77 68.45 65.12 68.1 65.12 67.67V66.11C65.12 65.68 64.77 65.33 64.34 65.33Z" fill="white"/>
<path opacity="0.15" d="M48.98 11.47C24.4 11.49 4.48 31.44 4.51 56.02C4.52 73.88 15.22 90.01 31.66 96.97C54.42 106.26 80.4 95.33 89.69 72.57C98.82 50.2 88.44 24.64 66.3 14.97C60.8211 12.6494 54.9301 11.459 48.98 11.47ZM48.98 10.47C74.11 10.47 94.48 30.84 94.48 55.97C94.48 81.1 74.11 101.47 48.98 101.47C23.85 101.47 3.48 81.1 3.48 55.97C3.48 30.84 23.85 10.47 48.98 10.47Z" fill="#FC1754"/>
<path d="M249.48 23.47H90.48C76.673 23.47 65.48 34.663 65.48 48.47V173.47C65.48 187.277 76.673 198.47 90.48 198.47H249.48C263.287 198.47 274.48 187.277 274.48 173.47V48.47C274.48 34.663 263.287 23.47 249.48 23.47Z" fill="white"/>
<path d="M90.48 24.47C77.24 24.46 66.49 35.18 66.48 48.43V173.47C66.47 186.71 77.19 197.46 90.44 197.47H249.48C262.72 197.48 273.47 186.76 273.48 173.51V48.47C273.49 35.23 262.77 24.48 249.52 24.47H90.48ZM90.48 23.47H249.48C263.29 23.47 274.48 34.66 274.48 48.47V173.47C274.48 187.28 263.29 198.47 249.48 198.47H90.48C76.67 198.47 65.48 187.28 65.48 173.47V48.47C65.48 34.66 76.67 23.47 90.48 23.47Z" fill="#EFEFEF"/>
<path d="M238.69 60.62H101.17C92.333 60.62 85.17 67.783 85.17 76.62V165.62C85.17 174.457 92.333 181.62 101.17 181.62H238.69C247.526 181.62 254.69 174.457 254.69 165.62V76.62C254.69 67.783 247.526 60.62 238.69 60.62Z" fill="#F5F5F5"/>
<path d="M181.52 92.82C180.97 93.47 180.32 94 179.56 94.39C178.8 94.78 177.97 94.98 177.06 94.98C175.87 94.98 174.83 94.69 173.95 94.1C173.07 93.51 172.39 92.69 171.9 91.63C171.42 90.57 171.18 89.4 171.18 88.11C171.18 86.73 171.44 85.49 171.97 84.39C172.49 83.29 173.24 82.44 174.2 81.86C175.16 81.28 176.29 80.98 177.57 80.98C179.61 80.98 181.22 81.74 182.39 83.27C183.56 84.8 184.15 86.87 184.15 89.51V90.27C184.15 94.28 183.36 97.21 181.77 99.06C180.18 100.91 177.79 101.85 174.59 101.9H174.08V99.68H174.63C176.79 99.64 178.45 99.08 179.61 97.99C180.77 96.9 181.4 95.18 181.51 92.82H181.52ZM177.48 92.82C178.36 92.82 179.17 92.55 179.91 92.01C180.65 91.47 181.19 90.81 181.53 90.01V88.96C181.53 87.24 181.16 85.84 180.41 84.77C179.66 83.69 178.72 83.16 177.58 83.16C176.44 83.16 175.5 83.6 174.8 84.48C174.1 85.36 173.75 86.53 173.75 87.97C173.75 89.41 174.09 90.54 174.76 91.45C175.43 92.36 176.34 92.82 177.47 92.82H177.48ZM199.83 101.88H186.32V100L193.46 92.07C194.52 90.87 195.25 89.9 195.65 89.15C196.05 88.4 196.25 87.62 196.25 86.82C196.25 85.74 195.92 84.86 195.27 84.17C194.62 83.48 193.75 83.14 192.66 83.14C191.36 83.14 190.35 83.51 189.62 84.25C188.89 84.99 188.54 86.02 188.54 87.34H185.92C185.92 85.44 186.53 83.91 187.75 82.74C188.97 81.57 190.61 80.98 192.66 80.98C194.58 80.98 196.09 81.48 197.2 82.49C198.31 83.5 198.87 84.83 198.87 86.5C198.87 88.53 197.58 90.95 194.99 93.75L189.47 99.74H199.82V101.88H199.83ZM101.04 52.62H100.07V47.17H93.57V52.62H92.61V41.24H93.57V46.35H100.07V41.24H101.04V52.62ZM106.18 52.78C105.46 52.78 104.81 52.6 104.23 52.25C103.65 51.9 103.2 51.4 102.87 50.77C102.54 50.14 102.39 49.43 102.39 48.64V48.3C102.39 47.49 102.55 46.76 102.86 46.1C103.17 45.44 103.61 44.94 104.18 44.56C104.75 44.18 105.35 44 106.01 44C107.04 44 107.85 44.35 108.45 45.05C109.05 45.75 109.35 46.71 109.35 47.92V48.44H103.32V48.62C103.32 49.58 103.59 50.38 104.14 51.01C104.69 51.64 105.38 51.97 106.21 51.97C106.71 51.97 107.15 51.88 107.53 51.7C107.91 51.52 108.26 51.23 108.57 50.82L109.16 51.27C108.47 52.27 107.48 52.76 106.17 52.76L106.18 52.78ZM106.01 44.81C105.31 44.81 104.71 45.07 104.23 45.58C103.75 46.09 103.46 46.79 103.35 47.66H108.42V47.56C108.39 46.75 108.16 46.09 107.72 45.58C107.28 45.07 106.71 44.81 106 44.81H106.01ZM115.71 52.62C115.62 52.35 115.56 51.96 115.53 51.44C115.2 51.87 114.78 52.2 114.28 52.43C113.78 52.66 113.23 52.78 112.67 52.78C111.86 52.78 111.2 52.55 110.7 52.1C110.2 51.65 109.95 51.07 109.95 50.38C109.95 49.56 110.29 48.91 110.98 48.43C111.66 47.95 112.62 47.71 113.84 47.71H115.54V46.75C115.54 46.15 115.35 45.67 114.98 45.32C114.61 44.97 114.06 44.8 113.35 44.8C112.7 44.8 112.16 44.97 111.73 45.3C111.3 45.63 111.09 46.03 111.09 46.5H110.15C110.15 45.82 110.46 45.24 111.09 44.75C111.72 44.26 112.48 44.01 113.39 44.01C114.3 44.01 115.08 44.25 115.62 44.72C116.16 45.19 116.44 45.85 116.46 46.69V50.69C116.46 51.51 116.55 52.12 116.72 52.53V52.62H115.71ZM112.77 51.95C113.39 51.95 113.95 51.8 114.45 51.5C114.95 51.2 115.3 50.79 115.52 50.29V48.43H113.85C112.92 48.44 112.19 48.61 111.66 48.94C111.13 49.27 110.87 49.73 110.87 50.3C110.87 50.77 111.05 51.17 111.4 51.48C111.75 51.79 112.21 51.95 112.77 51.95ZM122.05 44.97C121.85 44.93 121.64 44.92 121.42 44.92C120.84 44.92 120.34 45.08 119.94 45.41C119.54 45.74 119.25 46.21 119.08 46.83V52.63H118.15V44.18H119.06L119.08 45.52C119.58 44.52 120.37 44.02 121.46 44.02C121.72 44.02 121.93 44.05 122.08 44.12L122.06 44.97H122.05ZM124.57 42.01V44.17H126.32V44.94H124.57V50.58C124.57 51.05 124.65 51.4 124.82 51.63C124.99 51.86 125.27 51.97 125.67 51.97C125.83 51.97 126.08 51.94 126.43 51.89L126.47 52.65C126.22 52.74 125.89 52.78 125.47 52.78C124.83 52.78 124.36 52.59 124.07 52.22C123.78 51.85 123.63 51.3 123.63 50.58V44.94H122.08V44.17H123.63V42.01H124.57ZM135.02 47.88H131.72V52.62H130.75V41.24H134.45C135.66 41.24 136.61 41.53 137.29 42.12C137.97 42.71 138.31 43.53 138.31 44.59C138.31 45.32 138.1 45.96 137.67 46.52C137.24 47.08 136.67 47.46 135.95 47.67L138.79 52.51V52.61H137.77L135.02 47.87V47.88ZM131.72 47.07H134.67C135.48 47.07 136.13 46.84 136.62 46.38C137.11 45.92 137.35 45.33 137.35 44.6C137.35 43.8 137.1 43.17 136.58 42.73C136.06 42.29 135.35 42.06 134.43 42.06H131.72V47.07ZM145.24 52.62C145.15 52.35 145.09 51.96 145.06 51.44C144.73 51.87 144.31 52.2 143.81 52.43C143.31 52.66 142.76 52.78 142.2 52.78C141.39 52.78 140.73 52.55 140.23 52.1C139.73 51.65 139.48 51.07 139.48 50.38C139.48 49.56 139.82 48.91 140.51 48.43C141.19 47.95 142.15 47.71 143.37 47.71H145.07V46.75C145.07 46.15 144.88 45.67 144.51 45.32C144.14 44.97 143.59 44.8 142.88 44.8C142.23 44.8 141.69 44.97 141.26 45.3C140.83 45.63 140.62 46.03 140.62 46.5H139.68C139.68 45.82 139.99 45.24 140.62 44.75C141.25 44.26 142.01 44.01 142.92 44.01C143.83 44.01 144.61 44.25 145.15 44.72C145.69 45.19 145.97 45.85 145.99 46.69V50.69C145.99 51.51 146.08 52.12 146.25 52.53V52.62H145.24ZM142.3 51.95C142.92 51.95 143.48 51.8 143.98 51.5C144.48 51.2 144.83 50.79 145.05 50.29V48.43H143.38C142.45 48.44 141.72 48.61 141.19 48.94C140.66 49.27 140.4 49.73 140.4 50.3C140.4 50.77 140.58 51.17 140.93 51.48C141.28 51.79 141.74 51.95 142.3 51.95ZM149.13 42.01V44.17H150.88V44.94H149.13V50.58C149.13 51.05 149.21 51.4 149.38 51.63C149.55 51.86 149.83 51.97 150.23 51.97C150.39 51.97 150.64 51.94 150.99 51.89L151.03 52.65C150.79 52.74 150.45 52.78 150.03 52.78C149.39 52.78 148.92 52.59 148.63 52.22C148.34 51.85 148.19 51.3 148.19 50.58V44.94H146.64V44.17H148.19V42.01H149.13ZM155.29 52.78C154.57 52.78 153.92 52.6 153.34 52.25C152.76 51.9 152.31 51.4 151.98 50.77C151.65 50.14 151.5 49.43 151.5 48.64V48.3C151.5 47.49 151.66 46.76 151.97 46.1C152.28 45.44 152.72 44.94 153.29 44.56C153.86 44.18 154.46 44 155.12 44C156.15 44 156.96 44.35 157.56 45.05C158.16 45.75 158.46 46.71 158.46 47.92V48.44H152.43V48.62C152.43 49.58 152.7 50.38 153.25 51.01C153.8 51.64 154.49 51.97 155.32 51.97C155.82 51.97 156.26 51.88 156.64 51.7C157.02 51.52 157.37 51.23 157.68 50.82L158.27 51.27C157.58 52.27 156.59 52.76 155.28 52.76L155.29 52.78ZM155.12 44.81C154.42 44.81 153.82 45.07 153.34 45.58C152.86 46.09 152.57 46.79 152.46 47.66H157.53V47.56C157.5 46.75 157.27 46.09 156.83 45.58C156.39 45.07 155.82 44.81 155.11 44.81H155.12ZM212.03 98.31C212.03 99.22 211.83 99.93 211.43 100.47C211.03 101 210.49 101.27 209.81 101.27C209 101.27 208.39 100.97 207.97 100.37L207.94 101.16H207.34V92.91H207.98V96.19C208.39 95.56 208.99 95.24 209.8 95.24C210.49 95.24 211.03 95.5 211.43 96.03C211.83 96.55 212.03 97.28 212.03 98.22V98.32V98.31ZM211.39 98.2C211.39 97.43 211.24 96.84 210.94 96.42C210.64 96 210.22 95.79 209.68 95.79C209.27 95.79 208.92 95.89 208.63 96.09C208.34 96.29 208.13 96.59 207.98 96.98V99.6C208.3 100.33 208.87 100.7 209.69 100.7C210.22 100.7 210.63 100.49 210.93 100.07C211.23 99.65 211.38 99.03 211.38 98.19L211.39 98.2ZM217.57 98.31C217.57 99.22 217.37 99.93 216.97 100.47C216.57 101 216.03 101.27 215.36 101.27C214.57 101.27 213.96 100.99 213.53 100.43V103.39H212.89V95.34H213.49L213.52 96.16C213.94 95.54 214.55 95.23 215.34 95.23C216.04 95.23 216.58 95.49 216.98 96.02C217.38 96.55 217.57 97.28 217.57 98.21V98.31ZM216.93 98.2C216.93 97.46 216.78 96.87 216.47 96.44C216.17 96.01 215.74 95.8 215.2 95.8C214.81 95.8 214.47 95.89 214.18 96.08C213.9 96.27 213.68 96.55 213.53 96.91V99.7C213.68 100.03 213.9 100.29 214.19 100.46C214.48 100.64 214.81 100.72 215.21 100.72C215.75 100.72 216.17 100.51 216.47 100.07C216.77 99.63 216.92 99.01 216.92 98.19L216.93 98.2ZM219.03 95.35L219.05 96.3C219.26 95.95 219.53 95.69 219.86 95.51C220.18 95.34 220.54 95.25 220.93 95.25C221.85 95.25 222.43 95.63 222.68 96.38C222.89 96.02 223.17 95.74 223.51 95.55C223.86 95.35 224.24 95.26 224.66 95.26C225.91 95.26 226.54 95.94 226.57 97.3V101.18H225.93V97.35C225.93 96.83 225.81 96.45 225.59 96.2C225.37 95.95 225.01 95.82 224.51 95.82C224.05 95.82 223.66 95.98 223.34 96.27C223.02 96.56 222.84 96.92 222.81 97.34V101.19H222.17V97.31C222.17 96.81 222.05 96.44 221.82 96.2C221.59 95.95 221.23 95.83 220.75 95.83C220.34 95.83 220 95.95 219.71 96.18C219.42 96.41 219.21 96.75 219.07 97.21V101.2H218.43V95.39H219.05L219.03 95.35Z" fill="#2E3D48"/>
<path d="M225.73 164.56C225.46 164.56 225.13 164.42 224.81 163.88C223.55 161.7 222.92 152.57 222.25 142.91C221.69 134.91 221.07 125.87 220.11 123.94C219.76 125.15 219.55 126.39 219.46 127.65C219.21 129.9 219.02 132.74 218.81 135.75C218.36 142.32 217.93 148.53 216.94 150.12C216.59 150.68 216.19 150.93 215.77 150.84C214.8 150.65 214.43 148.85 213.81 145.43C213.59 144.22 213.37 142.96 213.11 141.99C213.02 141.43 212.81 140.89 212.48 140.43C212.31 140.6 212.18 140.8 212.08 141.02C211.87 141.43 211.64 141.97 211.41 142.54C211.01 143.64 210.48 144.69 209.82 145.66C209.368 146.182 208.807 146.598 208.176 146.878C207.545 147.158 206.86 147.295 206.17 147.28H188.27V146.28H206.16C207.24 146.3 208.29 145.86 209.02 145.06C209.62 144.15 210.11 143.17 210.48 142.15C211.14 140.55 211.62 139.4 212.47 139.4H212.5C213.69 139.43 214.12 141.54 214.79 145.25C215 146.41 215.2 147.51 215.42 148.39C215.51 148.88 215.69 149.36 215.93 149.8C215.99 149.73 216.04 149.66 216.09 149.59C216.95 148.22 217.43 141.27 217.81 135.68C218.03 132.48 218.24 129.47 218.5 127.15C218.9 123.65 219.3 122.9 219.9 122.75C220.15 122.69 220.52 122.72 220.87 123.27C222.01 125.07 222.58 133.3 223.24 142.84C223.84 151.54 224.53 161.4 225.67 163.38C225.69 163.41 225.7 163.44 225.72 163.46C225.92 163.08 226.06 162.67 226.16 162.25C226.42 161.19 226.62 160.13 226.77 159.05C227.16 156.49 227.49 153.27 227.82 150.15C228.09 147.61 228.34 145.2 228.6 143.33C228.97 140.65 229.25 139.88 229.54 139.56C229.79 139.22 230.22 139.06 230.64 139.14C231.63 139.37 232.19 141.01 232.92 143.49C233.12 144.17 233.31 144.8 233.46 145.15C233.81 145.85 234.53 146.29 235.32 146.28H254.7V147.28H235.3C234.12 147.3 233.04 146.62 232.54 145.55C232.31 144.97 232.12 144.37 231.96 143.77C231.71 142.94 231.44 142 231.13 141.25C230.73 140.27 230.47 140.13 230.42 140.11C230.37 140.14 230.32 140.18 230.28 140.22C230.21 140.3 229.96 140.8 229.58 143.51C229.33 145.36 229.08 147.73 228.81 150.24C228.47 153.51 228.11 156.89 227.7 159.52C227.08 163.49 226.55 164.38 225.89 164.52C225.84 164.54 225.78 164.55 225.73 164.55V164.56Z" fill="#FC1754"/>
<path d="M174.14 164.56C173.87 164.56 173.54 164.42 173.22 163.88C171.96 161.7 171.33 152.57 170.66 142.91C170.1 134.91 169.48 125.87 168.52 123.94C168.17 125.15 167.96 126.39 167.87 127.65C167.62 129.9 167.43 132.74 167.22 135.75C166.77 142.32 166.34 148.53 165.35 150.12C165 150.68 164.6 150.93 164.18 150.84C163.21 150.65 162.84 148.85 162.22 145.43C162 144.22 161.78 142.96 161.52 141.99C161.43 141.43 161.22 140.89 160.89 140.43C160.72 140.6 160.59 140.8 160.49 141.02C160.28 141.43 160.05 141.97 159.82 142.54C159.42 143.64 158.89 144.69 158.23 145.66C157.778 146.182 157.217 146.598 156.586 146.878C155.955 147.158 155.27 147.295 154.58 147.28H136.68V146.28H154.57C155.65 146.3 156.7 145.86 157.43 145.06C158.03 144.15 158.52 143.17 158.89 142.15C159.55 140.55 160.03 139.4 160.88 139.4H160.91C162.1 139.43 162.53 141.54 163.2 145.25C163.41 146.41 163.61 147.51 163.83 148.39C163.92 148.88 164.1 149.36 164.34 149.8C164.4 149.73 164.45 149.66 164.5 149.59C165.36 148.22 165.84 141.27 166.22 135.68C166.44 132.48 166.65 129.47 166.91 127.15C167.31 123.65 167.71 122.9 168.31 122.75C168.56 122.69 168.93 122.72 169.28 123.27C170.42 125.07 170.99 133.3 171.65 142.84C172.25 151.54 172.94 161.4 174.08 163.38C174.1 163.41 174.11 163.44 174.13 163.46C174.33 163.08 174.47 162.67 174.57 162.25C174.83 161.19 175.03 160.13 175.18 159.05C175.57 156.49 175.9 153.27 176.23 150.15C176.5 147.61 176.75 145.2 177.01 143.33C177.38 140.65 177.66 139.88 177.95 139.56C178.2 139.22 178.63 139.06 179.05 139.14C180.04 139.37 180.6 141.01 181.33 143.49C181.53 144.17 181.72 144.8 181.87 145.15C182.22 145.85 182.94 146.29 183.73 146.28H203.11V147.28H183.71C182.53 147.3 181.45 146.62 180.95 145.55C180.72 144.97 180.53 144.37 180.37 143.77C180.12 142.94 179.85 142 179.54 141.25C179.14 140.27 178.88 140.13 178.83 140.11C178.78 140.14 178.73 140.18 178.69 140.22C178.62 140.3 178.37 140.8 177.99 143.51C177.74 145.36 177.49 147.73 177.22 150.24C176.88 153.51 176.52 156.89 176.11 159.52C175.49 163.49 174.96 164.38 174.3 164.52C174.25 164.54 174.19 164.55 174.14 164.55V164.56Z" fill="#FC1754"/>
<path d="M122.68 164.56C122.41 164.56 122.08 164.42 121.76 163.88C120.5 161.7 119.87 152.57 119.2 142.91C118.64 134.91 118.02 125.87 117.06 123.94C116.71 125.15 116.5 126.39 116.41 127.65C116.16 129.9 115.97 132.74 115.76 135.75C115.31 142.32 114.88 148.53 113.89 150.12C113.54 150.68 113.14 150.93 112.72 150.84C111.75 150.65 111.38 148.85 110.76 145.43C110.54 144.22 110.32 142.96 110.06 141.99C109.97 141.43 109.76 140.89 109.43 140.43C109.26 140.6 109.13 140.8 109.03 141.02C108.82 141.43 108.59 141.97 108.36 142.54C107.96 143.64 107.43 144.69 106.77 145.66C106.318 146.182 105.757 146.598 105.126 146.878C104.495 147.158 103.81 147.295 103.12 147.28H85.22V146.28H103.11C104.19 146.3 105.24 145.86 105.97 145.06C106.57 144.15 107.06 143.17 107.43 142.15C108.09 140.55 108.57 139.4 109.42 139.4H109.45C110.64 139.43 111.07 141.54 111.74 145.25C111.95 146.41 112.15 147.51 112.37 148.39C112.46 148.88 112.64 149.36 112.88 149.8C112.94 149.73 112.99 149.66 113.04 149.59C113.9 148.22 114.38 141.27 114.76 135.68C114.98 132.48 115.19 129.47 115.45 127.15C115.85 123.65 116.25 122.9 116.85 122.75C117.1 122.69 117.47 122.72 117.82 123.27C118.96 125.07 119.53 133.3 120.19 142.84C120.79 151.54 121.48 161.4 122.62 163.38C122.64 163.41 122.65 163.44 122.67 163.46C122.87 163.08 123.01 162.67 123.11 162.25C123.37 161.19 123.57 160.13 123.72 159.05C124.11 156.49 124.44 153.27 124.77 150.15C125.04 147.61 125.29 145.2 125.55 143.33C125.92 140.65 126.2 139.88 126.49 139.56C126.74 139.22 127.17 139.06 127.59 139.14C128.58 139.37 129.14 141.01 129.87 143.49C130.07 144.17 130.26 144.8 130.41 145.15C130.76 145.85 131.48 146.29 132.27 146.28H151.65V147.28H132.25C131.07 147.3 129.99 146.62 129.49 145.55C129.26 144.97 129.07 144.37 128.91 143.77C128.66 142.94 128.39 142 128.08 141.25C127.68 140.27 127.42 140.13 127.37 140.11C127.32 140.14 127.27 140.18 127.23 140.22C127.16 140.3 126.91 140.8 126.53 143.51C126.28 145.36 126.03 147.73 125.76 150.24C125.42 153.51 125.06 156.89 124.65 159.52C124.03 163.49 123.5 164.38 122.84 164.52C122.79 164.54 122.73 164.55 122.68 164.55V164.56Z" fill="#FC1754"/>
<g filter="url(#filter0_d_0_4)">
<path d="M127.96 106.49C136.581 106.49 143.57 99.501 143.57 90.88C143.57 82.259 136.581 75.27 127.96 75.27C119.339 75.27 112.35 82.259 112.35 90.88C112.35 99.501 119.339 106.49 127.96 106.49Z" fill="white"/>
</g>
<path d="M130.16 90.92L128.35 94.53C128.316 94.5984 128.269 94.6594 128.211 94.7096C128.153 94.7597 128.087 94.7979 128.014 94.8221C127.942 94.8462 127.865 94.8558 127.789 94.8503C127.713 94.8448 127.638 94.8243 127.57 94.79C127.449 94.7319 127.354 94.6326 127.3 94.51L125.23 89.92L124.14 92.53H120.72L127.35 99.31C127.6 99.57 128.01 99.58 128.27 99.33L128.29 99.31L134.93 92.53H130.97L130.17 90.92H130.16ZM135.74 84.74L135.65 84.65C135.214 84.2025 134.693 83.8454 134.119 83.5991C133.544 83.3529 132.927 83.2223 132.302 83.2149C131.677 83.2074 131.056 83.3233 130.476 83.5558C129.896 83.7883 129.367 84.133 128.92 84.57L128.84 84.65L127.82 85.69L126.81 84.65C125.931 83.7471 124.729 83.2305 123.469 83.2136C122.208 83.1967 120.993 83.681 120.09 84.56L120 84.65L119.91 84.74C119.064 85.6206 118.571 86.7807 118.523 88.0006C118.475 89.2206 118.876 90.4158 119.65 91.36H123.37L124.67 88.23C124.79 87.93 125.14 87.79 125.43 87.92C125.57 87.98 125.68 88.08 125.74 88.22L127.85 92.92L129.63 89.36C129.77 89.07 130.12 88.96 130.41 89.1C130.52 89.16 130.61 89.25 130.67 89.36L131.67 91.37H135.99C137.59 89.42 137.48 86.57 135.73 84.75L135.74 84.74Z" fill="#FC1754"/>
</g>
<defs>
<filter id="filter0_d_0_4" x="106.35" y="72.27" width="43.22" height="43.22" filterUnits="userSpaceOnUse" colorInterpolationFilters="sRGB">
<feFlood floodOpacity="0" result="BackgroundImageFix"/>
<feColorMatrix in="SourceAlpha" type="matrix" values="0 0 0 0 0 0 0 0 0 0 0 0 0 0 0 0 0 0 127 0" result="hardAlpha"/>
<feOffset dy="3"/>
<feGaussianBlur stdDeviation="3"/>
<feColorMatrix type="matrix" values="0 0 0 0 0.988235 0 0 0 0 0.0901961 0 0 0 0 0.329412 0 0 0 0.161 0"/>
<feBlend mode="normal" in2="BackgroundImageFix" result="effect1_dropShadow_0_4"/>
<feBlend mode="normal" in="SourceGraphic" in2="effect1_dropShadow_0_4" result="shape"/>
</filter>
<linearGradient id="paint0_linear_0_4" x1="29.554" y1="36.646" x2="68.552" y2="67.748" gradientUnits="userSpaceOnUse">
<stop stopColor="#FFADE9"/>
<stop offset="0.52" stopColor="#FC668E"/>
<stop offset="1" stopColor="#FC1754"/>
</linearGradient>
</defs>
</svg>
