<svg xmlns="http://www.w3.org/2000/svg" xmlns:xlink="http://www.w3.org/1999/xlink" viewBox="0 0 396.433 80.002" data-aos="fade-right" data-aos-delay="400" className="h-55 sm:h-65 md:h-80 aos-init aos-animate"><defs><clipPath id="FeatureStepFrame_svg__b"><use xlink:href="#FeatureStepFrame_svg__a" fillRule="evenodd" clip-rule="evenodd"></use></clipPath><path id="FeatureStepFrame_svg__a" d="M396.433 0v80.002H0V0z"></path></defs><path fill="none" d="M396.433 0v80.002H0V0z"></path><g clipPath="url(#FeatureStepFrame_svg__b)" transform="translate(-.001 -.001)"><path fill="#F5F5F5" fill-opacity="0.525" fillRule="evenodd" d="M93.992 80.002c-18.65 0-34.318-12.762-38.749-30.03-.866-1.53-2.844-3.492-7.286-3.492-3.351 0-5.303 1.116-6.434 2.32-.43.963-.93 1.89-1.49 2.772-.024.11-.032.172-.032.172l.003-.127c-3.835 5.996-10.552 9.97-18.198 9.97h-.22C9.664 61.588 0 51.925 0 40.002s9.664-21.586 21.586-21.586h.22c7.684 0 14.43 4.015 18.254 10.06l-.004-.216s.013.11.055.296q.837 1.336 1.477 2.794c1.125 1.231 3.058 2.361 6.369 2.361 4.497 0 6.45-2.088 7.287-3.68C59.674 12.763 75.343 0 93.992 0h262.443c22.093 0 39.998 17.91 39.998 40.001 0 22.093-17.905 40.001-39.998 40.001z"></path><path fill="none" stroke="#EFEFEF" strokeLinecap="round" strokeLinejoin="round" d="M94.268 79.498c-18.603 0-34.232-12.604-38.65-29.656-.866-1.51-2.838-3.448-7.27-3.448-3.342 0-5.29 1.103-6.416 2.291-.43.951-.928 1.866-1.488 2.737-.024.109-.03.17-.03.17l.001-.126a21.57 21.57 0 0 1-18.152 9.847h-.22c-11.891 0-21.53-9.543-21.53-21.316S10.152 18.68 22.045 18.68h.219a21.57 21.57 0 0 1 18.208 9.934l-.005-.213s.013.107.055.292q.837 1.32 1.473 2.76c1.123 1.216 3.052 2.33 6.354 2.33 4.485 0 6.435-2.06 7.269-3.633C60.036 13.1 75.666.496 94.268.496H356.05c22.036 0 39.897 17.686 39.897 39.5 0 21.817-17.86 39.502-39.897 39.502z"></path><path fill="#FFF" fillRule="evenodd" d="M94.492 10.002h261.443c16.569 0 30 13.432 30 30s-13.431 30-30 30H94.492c-16.568 0-30-13.432-30-30s13.432-30 30-30"></path><path fill="#FC1754" fillRule="evenodd" d="M21.64 25.03c8.202-.001 14.851 6.648 14.852 14.85v.298c0 8.203-6.65 14.852-14.852 14.852S6.788 48.38 6.788 40.178v-.298c.003-8.207 6.654-14.854 14.856-14.851z"></path></g></svg>