<svg xmlns="http://www.w3.org/2000/svg" xmlns:xlink="http://www.w3.org/1999/xlink" viewBox="0 0 1082.726 160.387" className="w-8/10 mx-auto -mt-25 -mb-5 sm:block hidden"><defs><linearGradient id="WhatWeDoWire_svg__c" x1="0.5" x2="0.5" y1="0.186" y2="1" gradientUnits="objectBoundingBox"><stop offset="0%" stopColor="#FC1754" stop-opacity="0"></stop><stop offset="100%" stopColor="#FC1754"></stop></linearGradient><clipPath id="WhatWeDoWire_svg__b"><use xlink:href="#WhatWeDoWire_svg__a" fillRule="evenodd" clip-rule="evenodd"></use></clipPath><path id="WhatWeDoWire_svg__a" d="M1082.73 0v160.387H0V0z"></path></defs><path fill="none" d="M1082.73 0v160.387H0V0z"></path><g clipPath="url(#WhatWeDoWire_svg__b)" transform="translate(-.106 6.551)"><g fill="none" stroke="#1279BA" strokeLinecap="round" strokeLinejoin="round" stroke-opacity="0.22"><path d="M1 .937V52.17M1 52.17l430.725 39.35M431.725 91.52v54.828"></path></g><g fill="none" stroke="#1279BA" strokeLinecap="round" strokeLinejoin="round" stroke-opacity="0.22"><path d="M1081.937.937V52.17M1081.937 52.17 651.211 91.52M651.211 91.52v54.828"></path></g><g fill="none" stroke="#1279BA" strokeLinecap="round" strokeLinejoin="round" stroke-opacity="0.22"><path d="M272.723.937v38.367M272.723 39.304l207.574 18.738M480.297 58.042v88.105"></path></g><g fill="none" stroke="#1279BA" strokeLinecap="round" strokeLinejoin="round" stroke-opacity="0.22"><path d="M810.217.936v38.368M810.217 39.304 602.642 58.04M602.642 58.041v88.105"></path></g><path fill="none" stroke="#1279BA" strokeLinecap="round" strokeLinejoin="round" stroke-opacity="0.22" d="M543.257 0v145.851"></path><path fill="url(#WhatWeDoWire_svg__c)" fillRule="evenodd" d="M543.757 101.764h-1V57.646h1zM180.775 68.093l.065 1.023-38.729-3.494-.066-1.017zM927.775 66.767l.069-1.023-39.38 3.55-.068 1.019zM427.66 52.79l-.001 1.018-22.236-2.05v-1.012zM677.516 51.76v-1.017l-22.236 2.051v1.012z"></path></g></svg>