<svg xmlns="http://www.w3.org/2000/svg" fill="none" viewBox="0 0 180 177" data-aos="fade-down" className="absolute -top-60 xl:-top-100 left-0 xl:left-30 w-150 xl:w-179 aos-init aos-animate"><path fill="url(#ContactDecoration_svg__a)" fillRule="evenodd" d="M113.57 9.267c.354 5.451-3.771 10.16-9.22 10.527-5.451.367-10.17-3.745-10.551-9.194C93.419 5.15 97.518.42 102.967.026c5.447-.394 10.187 3.695 10.596 9.141z" clip-rule="evenodd"></path><path fill="url(#ContactDecoration_svg__b)" fillRule="evenodd" d="M60.371 156.969c.662 9.858-6.787 18.39-16.644 19.065-9.858.676-18.399-6.76-19.088-16.617-.69-9.856 6.734-18.408 16.59-19.111s18.417 6.709 19.134 16.563z" clip-rule="evenodd"></path><path fill="url(#ContactDecoration_svg__c)" fillRule="evenodd" d="M107.785 118.642c.028-15.604 12.694-28.236 28.297-28.223 15.606.014 28.25 12.668 28.25 28.273s-12.644 28.26-28.25 28.273c-15.603.014-28.269-12.618-28.297-28.223z" clip-rule="evenodd"></path><path stroke="#FC1754" strokeLinecap="round" strokeLinejoin="round" stroke-opacity="0.451" strokeWidth="0.986" d="M101.104 118.702c.027-19.319 15.703-34.963 35.023-34.95s34.977 15.679 34.977 34.999c0 19.321-15.655 34.987-34.975 35.001s-34.998-15.63-35.025-34.95z"></path><path stroke="#FC1754" strokeLinecap="round" strokeLinejoin="round" stroke-opacity="0.149" strokeWidth="0.988" d="M93.604 118.643c.027-23.463 19.062-42.464 42.525-42.45s42.475 19.039 42.475 42.501-19.014 42.486-42.475 42.499c-23.463.014-42.498-18.988-42.525-42.45z"></path><path fill="#fff" fillRule="evenodd" d="M133.352 130.514a2.75 2.75 0 0 0 2.754 2.753 2.75 2.75 0 0 0 2.751-2.753zm12.269-5.795v-8.05c0-4.496-3.113-8.259-7.318-9.254v-.996c0-1.218-.983-2.2-2.199-2.2-1.217 0-2.2.982-2.2 2.2v.996a9.505 9.505 0 0 0-7.316 9.253v8.05l-2.932 2.933v1.466h24.899v-1.466zm-3.984-5.27h-4.151v4.15h-2.765v-4.15h-4.151v-2.78h4.151v-4.15h2.767v4.15h4.151v2.78z" clip-rule="evenodd"></path><path fill="url(#ContactDecoration_svg__d)" fillRule="evenodd" d="M16.027 75.741c.028-14.635 11.907-26.481 26.543-26.468s26.493 11.882 26.493 26.518c.001 14.636-11.856 26.504-26.493 26.518-14.634.014-26.515-11.832-26.543-26.467z" clip-rule="evenodd"></path><path stroke="#1279BA" strokeLinecap="round" strokeLinejoin="round" stroke-opacity="0.451" strokeWidth="0.985" d="M9 75.643c.027-18.492 15.033-33.464 33.525-33.45C61.018 42.207 76 57.2 76 75.693s-14.984 33.486-33.475 33.5C24.033 109.206 9.027 94.234 9 75.743z"></path><path stroke="#1279BA" strokeLinecap="round" strokeLinejoin="round" stroke-opacity="0.149" strokeWidth="0.988" d="M1 75.643c.027-22.91 18.615-41.463 41.525-41.45C65.435 34.207 84 52.783 84 75.693s-18.564 41.487-41.475 41.5c-22.91.014-41.498-18.54-41.525-41.45z"></path><path stroke="#fff" strokeLinecap="round" strokeLinejoin="round" strokeWidth="3" d="M33.518 65.524h18.054a2.58 2.58 0 0 1 2.582 2.58V86.16a2.58 2.58 0 0 1-2.58 2.58H33.52a2.58 2.58 0 0 1-2.579-2.58V68.102a2.577 2.577 0 0 1 2.579-2.579zM47.703 62.945v5.158M37.387 62.945v5.158M30.94 73.262h23.214"></path><defs><linearGradient id="ContactDecoration_svg__a" x1="111.293" x2="97.203" y1="3.508" y2="17.38" gradientUnits="userSpaceOnUse"><stop stopColor="#FFADE9"></stop><stop offset="0.522" stopColor="#FC668E"></stop><stop offset="1" stopColor="#FC1754"></stop></linearGradient><linearGradient id="ContactDecoration_svg__b" x1="56.257" x2="30.791" y1="146.599" y2="171.672" gradientUnits="userSpaceOnUse"><stop stopColor="#95D6FF"></stop><stop offset="0.522" stopColor="#2592D6"></stop><stop offset="1" stopColor="#005388"></stop></linearGradient><linearGradient id="ContactDecoration_svg__c" x1="157.773" x2="117.568" y1="100.428" y2="140.011" gradientUnits="userSpaceOnUse"><stop stopColor="#FFADE9"></stop><stop offset="0.522" stopColor="#FC668E"></stop><stop offset="1" stopColor="#FC1754"></stop></linearGradient><linearGradient id="ContactDecoration_svg__d" x1="22.179" x2="59.888" y1="58.661" y2="95.785" gradientUnits="userSpaceOnUse"><stop stopColor="#95D6FF"></stop><stop offset="0.522" stopColor="#2592D6"></stop><stop offset="1" stopColor="#005388"></stop></linearGradient></defs></svg>