<?xml version="1.0" encoding="UTF-8"?> <svg xmlns="http://www.w3.org/2000/svg" xmlns:v="https://vecta.io/nano" width="32" height="32" fill="#ffffff"><path d="M19.366 24.227c0 .368.298.667.667.667s.667-.299.667-.667v-6.439c0-.368-.299-.667-.667-.667s-.667.299-.667.667v6.439z"></path><path fill-rule="evenodd" d="M25.292 5.375a7.05 7.05 0 0 0-9.968 0L4.041 16.657a7.05 7.05 0 0 0 0 9.968 7.05 7.05 0 0 0 9.968 0l.66-.66c1.3 1.533 3.216 2.506 5.363 2.506 3.942 0 7.106-3.279 7.106-7.284 0-2.124-.889-4.043-2.312-5.378l.466-.466a7.05 7.05 0 0 0 0-9.968zM12.927 21.187c0 1.335.352 2.59.966 3.669l-.826.826c-2.232 2.232-5.851 2.232-8.083 0s-2.232-5.851 0-8.083l5.17-5.17 4.276 4.276c-.943 1.238-1.503 2.795-1.503 4.481zm7.106-7.285c-1.806 0-3.45.689-4.7 1.821l-4.236-4.236 5.17-5.169c2.232-2.232 5.851-2.232 8.083 0s2.232 5.851 0 8.083l-.585.585a6.94 6.94 0 0 0-3.731-1.083zm0 13.236c3.171 0 5.772-2.647 5.772-5.951s-2.602-5.951-5.772-5.951-5.772 2.647-5.772 5.951 2.601 5.951 5.772 5.951z"></path></svg> 