<?xml version="1.0" encoding="UTF-8"?> <svg xmlns="http://www.w3.org/2000/svg" xmlns:v="https://vecta.io/nano" width="32" height="32" fill="none"><path fill-rule="evenodd" d="M3.061 12.806C3.399 6.055 8.873.667 15.603.667h.793c6.73 0 12.204 5.388 12.542 12.139h.143c1.257 0 2.252 1.036 2.252 2.285v6.068c0 1.249-.996 2.285-2.252 2.285h-.126v3.786c0 1.249-.996 2.285-2.252 2.285h-3.741c-.211 1.031-1.109 1.82-2.206 1.82h-1.586c-1.256 0-2.252-1.036-2.252-2.285s.996-2.285 2.252-2.285h1.586a2.25 2.25 0 0 1 2.083 1.416h3.863c.495 0 .919-.413.919-.951v-3.786h-.126c-1.257 0-2.252-1.036-2.252-2.285V15.09c0-1.249.996-2.285 2.252-2.285h.108C27.267 6.769 22.366 2 16.396 2h-.793C9.633 2 4.732 6.769 4.396 12.806h.108c1.257 0 2.252 1.036 2.252 2.285v6.068c0 1.249-.996 2.285-2.252 2.285H2.918c-1.257 0-2.252-1.036-2.252-2.285V15.09c0-1.249.996-2.285 2.252-2.285h.143zm-.143 1.333c-.495 0-.919.413-.919.951v6.068c0 .538.424.951.919.951h1.586c.495 0 .919-.413.919-.951V15.09c0-.538-.424-.951-.919-.951H2.918zm24.577 0c-.495 0-.919.413-.919.951v6.068c0 .538.424.951.919.951h1.586c.495 0 .919-.413.919-.951V15.09c0-.538-.424-.951-.919-.951h-1.586zm-8.324 13.958c-.495 0-.919.413-.919.951s.424.951.919.951h1.586c.495 0 .919-.413.919-.951s-.424-.951-.919-.951h-1.586z" fill="#ffffff"></path></svg> 