<?xml version="1.0" encoding="UTF-8"?> <svg xmlns="http://www.w3.org/2000/svg" xmlns:v="https://vecta.io/nano" width="32" height="32" fill="#ffffff" fill-rule="evenodd"><path d="M14.166 10.471c0-.638.517-1.155 1.154-1.155h1.171c.638 0 1.154.517 1.154 1.155v.992h.991c.638 0 1.155.517 1.155 1.154v1.171c0 .637-.517 1.154-1.155 1.154h-.991v.992c0 .638-.517 1.155-1.154 1.155H15.32c-.638 0-1.154-.517-1.154-1.155v-.992h-.993c-.638 0-1.155-.517-1.155-1.154v-1.171c0-.638.517-1.154 1.155-1.154h.993v-.992zm1.333.179v1.48c0 .177-.07.346-.195.471s-.295.195-.471.195h-1.481v.813h1.481c.368 0 .667.298.667.667v1.48h.813v-1.48c0-.368.298-.667.667-.667h1.479v-.813H16.98c-.368 0-.667-.298-.667-.667v-1.48H15.5zM6.894 4.667c-.638 0-1.154.517-1.154 1.154v1.301c0 .638.517 1.154 1.154 1.154h.309v2.407H3.154C2.517 10.683 2 11.2 2 11.837v1.301c0 .638.517 1.154 1.154 1.154h.194c-.031.13-.048.267-.048.406v10.894a1.74 1.74 0 0 0 1.74 1.74h7.215.005.005 3.729H16h.005 3.73.005.005 7.214a1.74 1.74 0 0 0 1.74-1.74V14.699a1.75 1.75 0 0 0-.048-.406h.194c.638 0 1.154-.517 1.154-1.154v-1.301c0-.638-.517-1.155-1.154-1.155h-4.049V8.276h.309c.638 0 1.154-.517 1.154-1.154V5.821c0-.638-.517-1.154-1.154-1.154H6.894zM16.667 26h2.407v-5.854h-2.407V26zm-1.333-5.854h-2.406V26h2.406v-5.854zm11.633-7.187h-.007-2.162v-.943h3.87v.943h-1.7zm-2.17 1.333V26h2.163c.225 0 .407-.182.407-.407V14.699c0-.223-.18-.405-.403-.406h-2.166zm-16.26-1.154v.017.459.011.011V26h3.057v-6.52c0-.368.298-.667.667-.667h7.48c.368 0 .667.298.667.667V26h3.057V8.276H8.536v3.544.017 1.301zm-1.333 1.154H5.037c-.223.002-.403.183-.403.406v10.894c0 .224.182.407.407.407h2.163V14.293zm-3.87-2.276h3.87v.943H5.041h-.007-1.7v-.943zm20.315-5.073h1.279V6H7.073v.943h1.279.006 15.285.006z"></path></svg> 