<svg xmlns="http://www.w3.org/2000/svg" viewBox="673.898 3449.944 92.465 303.211" className="w-92 mx-auto -mt-50 sm:block hidden"><g data-name="Group 3344"><path fill="transparent" stroke="#e3e3e3" strokeLinecap="round" strokeLinejoin="round" d="M673.898 3449.944v86.095l16.042 28.669v188.446" data-name="Path 2649"></path><path fill="transparent" stroke="#e3e3e3" strokeLinecap="round" strokeLinejoin="round" d="M765.864 3449.944v86.095l-16.042 28.669v188.446" data-name="Path 2656"></path><path fill="transparent" stroke="#e3e3e3" strokeLinecap="round" strokeLinejoin="round" d="M688.925 3449.944v86.095l11.015 28.669v188.446" data-name="Path 2650"></path><path fill="transparent" stroke="#e3e3e3" strokeLinecap="round" strokeLinejoin="round" d="M750.838 3449.944v86.095l-11.016 28.669v188.446" data-name="Path 2657"></path><path fill="transparent" stroke="#e3e3e3" strokeLinecap="round" strokeLinejoin="round" d="M704.367 3449.944v86.095l5.573 28.669v188.446" data-name="Path 2651"></path><path fill="transparent" stroke="#e3e3e3" strokeLinecap="round" strokeLinejoin="round" d="M735.396 3449.944v86.095l-5.574 28.669v188.446" data-name="Path 2658"></path><path fill="transparent" stroke="#e3e3e3" strokeLinecap="round" strokeLinejoin="round" d="m719.822 3449.944.118 303.21" data-name="Path 2652"></path><path fill="url(#FeatureStepLines1_svg__a)" fillRule="evenodd" d="M0 0h1v34.758H0z" data-name="Rectangle 5401" transform="translate(719.44 3530.429)"></path><path fill="url(#FeatureStepLines1_svg__b)" fillRule="evenodd" d="M0 0h1v34.758H0z" data-name="Rectangle 5402" transform="translate(765.364 3486.7)"></path><path fill="url(#FeatureStepLines1_svg__c)" fillRule="evenodd" d="M0 0h1v34.758H0z" data-name="Rectangle 5403" transform="translate(688.425 3482.731)"></path></g><defs><linearGradient id="FeatureStepLines1_svg__a" x1="0.5" x2="0.5" y1="0.814" y2="0"><stop offset="0" stopColor="#fff"></stop><stop offset="1" stopColor="#fc1754"></stop></linearGradient><linearGradient id="FeatureStepLines1_svg__b" x1="0.5" x2="0.5" y1="0.814" y2="0"><stop offset="0" stopColor="#fff"></stop><stop offset="1" stopColor="#fc1754"></stop></linearGradient><linearGradient id="FeatureStepLines1_svg__c" x1="0.5" x2="0.5" y1="0.814" y2="0"><stop offset="0" stopColor="#fff"></stop><stop offset="1" stopColor="#fc1754"></stop></linearGradient></defs></svg>