<?xml version="1.0" encoding="UTF-8"?> <svg xmlns="http://www.w3.org/2000/svg" xmlns:v="https://vecta.io/nano" width="32" height="32" fill="none"><g clip-path="url(#A)" fill="#ffffff"><path d="M23.15 21.192a.67.67 0 0 1 .667.667v.875h.877a.67.67 0 0 1 .667.667.67.67 0 0 1-.667.667h-.877v.875c0 .368-.298.667-.667.667s-.667-.299-.667-.667v-.875h-.874a.67.67 0 0 1-.667-.667c0-.368.298-.667.667-.667h.874v-.875a.67.67 0 0 1 .667-.667zM8.832 4.086c.368 0 .667.298.667.667v.875h.876c.368 0 .667.298.667.667s-.298.667-.667.667h-.876v.875c0 .368-.298.667-.667.667s-.667-.298-.667-.667v-.875H7.29c-.368 0-.667-.298-.667-.667s.298-.667.667-.667h.875v-.875c0-.368.298-.667.667-.667z"></path><path fill-rule="evenodd" d="M.686 1.788c0-.598.485-1.083 1.083-1.083h14.161c.598 0 1.083.485 1.083 1.083v1.166c0 .496-.333.914-.788 1.042v3.869h5.417a2.26 2.26 0 0 1 2.258 2.258v7.688h6.351c.598 0 1.083.485 1.083 1.083v1.166c0 .496-.333.914-.788 1.042v9.106c0 .698-.566 1.263-1.263 1.263H17.117c-.698 0-1.263-.566-1.263-1.263V23.52h-5.351a2.26 2.26 0 0 1-2.258-2.258v-6.896H2.797c-.698 0-1.263-.566-1.263-1.263V4.011c-.485-.108-.848-.54-.848-1.057V1.788zm28.526 19.356H17.187v8.996h3.121v-3.497c0-.528.428-.956.956-.956h3.855c.528 0 .956.428.956.956v3.497h3.137v-8.996zm-13.358-.026c-.485-.108-.848-.54-.848-1.058v-1.166c0-.598.485-1.083 1.083-1.083h6.477v-7.688c0-.511-.414-.925-.925-.925h-5.417v3.904c0 .698-.566 1.263-1.263 1.263H9.577v6.896c0 .511.414.925.925.925h5.351v-1.069zM2.867 4.037h12.025v8.996h-3.139V9.536c0-.528-.428-.956-.956-.956H6.941c-.528 0-.956.428-.956.956v3.497H2.867V4.037zm-.848-1.999v.666h13.66v-.666H2.019zm20.505 28.101h-.882V27.02h.882v3.119zm1.333 0h.884V27.02h-.884v3.119zM8.202 13.033h-.884V9.913h.884v3.119zm1.333-.072a.66.66 0 0 1 .022.072h.861V9.913h-.883v3.047zm6.804 6.849v-.666h13.66v.666h-13.66z"></path></g><defs><clipPath id="A"><path fill="#fff" d="M0 0h32v32H0z"></path></clipPath></defs></svg> 