<?xml version="1.0" encoding="UTF-8"?> <svg xmlns="http://www.w3.org/2000/svg" xmlns:xlink="http://www.w3.org/1999/xlink" xmlns:v="https://vecta.io/nano" width="32" height="32" fill="none"><g fill-rule="evenodd" fill="#ffffff"><path d="M.666 29.243c0-3.309 2.681-6.032 6-6.032s6 2.723 6 6.032a.99.99 0 0 1-.989.991H1.655a.99.99 0 0 1-.989-.991zm1.346-.343h9.309c-.175-2.424-2.197-4.355-4.654-4.355S2.187 26.476 2.012 28.9z"></path><use xlink:href="#B"></use><path d="M19.333 29.243c0-3.309 2.681-6.032 6-6.032s6 2.723 6 6.032a.99.99 0 0 1-.989.991H20.321a.99.99 0 0 1-.989-.991zm1.346-.343h9.309c-.176-2.424-2.197-4.355-4.654-4.355s-4.479 1.931-4.654 4.355z"></path><use xlink:href="#B" x="18.667"></use><path d="M3.333 2.667a2 2 0 0 1 2-2h21.333a2 2 0 0 1 2 2v8a2 2 0 0 1-2 2h-3.333V16a.67.67 0 0 1-.384.604c-.234.11-.511.074-.71-.092l-4.614-3.846h-4.584l-4.615 3.846a.67.67 0 0 1-.71.092c-.235-.109-.384-.345-.384-.604v-3.333h-2a2 2 0 0 1-2-2v-8zm2-.667c-.368 0-.667.298-.667.667v8c0 .368.298.667.667.667H8c.177 0 .346.07.471.195s.195.295.195.471v2.577l3.707-3.089c.12-.1.271-.155.427-.155h5.067c.156 0 .307.055.427.155l3.707 3.089V12c0-.177.07-.346.195-.471s.295-.195.471-.195h4c.368 0 .667-.298.667-.667v-8A.67.67 0 0 0 26.667 2H5.333zM8.45 6a.73.73 0 0 0-.728.728.73.73 0 0 0 .728.728.73.73 0 0 0 .728-.728A.73.73 0 0 0 8.45 6zm-2.061.728a2.062 2.062 0 1 1 4.123 0 2.062 2.062 0 1 1-4.123 0z"></path><use xlink:href="#C"></use><use xlink:href="#C" x="7.44"></use></g><defs><path id="B" d="M6.557 18.163a1.83 1.83 0 1 0 0 3.662 1.83 1.83 0 1 0 0-3.661zm-3.164 1.831c0-1.748 1.417-3.164 3.164-3.164s3.164 1.417 3.164 3.164-1.417 3.164-3.164 3.164-3.164-1.417-3.164-3.164z"></path><path id="C" d="M15.886 6a.73.73 0 0 0-.728.728.73.73 0 0 0 .728.728.73.73 0 0 0 .728-.728.73.73 0 0 0-.728-.728zm-2.061.728a2.06 2.06 0 1 1 4.123 0 2.06 2.06 0 1 1-4.123 0z"></path></defs></svg> 